<svg width="41" height="41" viewBox="0 0 41 41" fill="none" xmlns="http://www.w3.org/2000/svg">
<path fill-rule="evenodd" clip-rule="evenodd" d="M23.0895 15.3822L19.0488 0L15.0082 15.3822L0.0012207 19.5238L15.0082 23.6654L19.0488 39.0476L19.7448 36.3982L19.9434 37.1545L20.5565 36.9853L20.0736 35.1466L23.0895 23.6654L34.2906 20.5741L36.0844 21.0692L36.2495 20.4408L35.5117 20.2372L38.0965 19.5238L23.0895 15.3822ZM35.5117 20.2372L33.7483 19.7505L33.5832 20.3789L34.2906 20.5741L35.5117 20.2372ZM20.0736 35.1466L19.8831 34.4216L19.27 34.5908L19.7448 36.3982L20.0736 35.1466ZM21.2903 3.23423L21.2732 3.23896L21.23 3.40343L20.9536 3.32716L20.6772 3.40343L20.634 3.23896L20.6169 3.23423L20.9536 1.95238L21.2903 3.23423ZM21.9638 5.79793L22.6372 8.36162L22.0241 8.53082L21.3507 5.96713L21.9638 5.79793ZM23.3106 10.9253L23.9841 13.489L23.371 13.6582L22.6975 11.0945L23.3106 10.9253ZM24.6575 16.0527L24.9942 17.3346L26.2448 17.6797L26.0797 18.3081L24.4762 17.8656L24.0444 16.2219L24.6575 16.0527ZM28.746 18.37L31.2471 19.0602L31.0821 19.6887L28.5809 18.9984L28.746 18.37ZM38.746 21.1486L38.7506 21.1311L40.0012 21.4762L38.7506 21.8213L38.746 21.8038L38.5856 21.7595L38.66 21.4762L38.5856 21.1929L38.746 21.1486ZM36.2495 22.5116L33.7483 23.2019L33.5832 22.5735L36.0844 21.8832L36.2495 22.5116ZM31.2471 23.8921L28.746 24.5824L28.5809 23.954L31.0821 23.2637L31.2471 23.8921ZM26.2448 25.2727L24.9942 25.6178L24.6575 26.8997L24.0444 26.7305L24.4762 25.0868L26.0797 24.6443L26.2448 25.2727ZM23.9841 29.4634L23.3106 32.0271L22.6975 31.8579L23.371 29.2942L23.9841 29.4634ZM22.6372 34.5908L21.9638 37.1545L21.3507 36.9853L22.0241 34.4216L22.6372 34.5908ZM21.2732 39.7134L21.2903 39.7182L20.9536 41L20.6169 39.7182L20.634 39.7134L20.6772 39.549L20.9536 39.6252L21.23 39.549L21.2732 39.7134ZM18.5966 32.0271L17.9231 29.4634L18.5362 29.2942L19.2097 31.8579L18.5966 32.0271ZM17.2497 26.8997L16.913 25.6178L15.6624 25.2727L15.8275 24.6443L17.431 25.0868L17.8628 26.7305L17.2497 26.8997ZM13.1612 24.5824L10.6601 23.8921L10.8251 23.2637L13.3263 23.954L13.1612 24.5824ZM8.1589 23.2019L5.65774 22.5116L5.82281 21.8832L8.32398 22.5735L8.1589 23.2019ZM3.16118 21.8038L3.15657 21.8213L1.90598 21.4762L3.15657 21.1311L3.16118 21.1486L3.32164 21.1929L3.24723 21.4762L3.32164 21.7595L3.16118 21.8038ZM5.65774 20.4408L8.1589 19.7505L8.32398 20.3789L5.82281 21.0692L5.65774 20.4408ZM10.6601 19.0602L13.1612 18.37L13.3263 18.9984L10.8251 19.6887L10.6601 19.0602ZM15.6624 17.6797L16.913 17.3346L17.2497 16.0527L17.8628 16.2219L17.431 17.8656L15.8275 18.3081L15.6624 17.6797ZM17.9231 13.489L18.5966 10.9253L19.2097 11.0945L18.5362 13.6582L17.9231 13.489ZM19.27 8.36163L19.9434 5.79793L20.5565 5.96713L19.8831 8.53082L19.27 8.36163Z" fill="white"/>
</svg>
